<svg width="122" height="18" viewBox="0 0 122 18" fill="none" xmlns="http://www.w3.org/2000/svg">
<path d="M9 0C13.9706 0 18 4.02944 18 9C18 11.4853 16.9929 13.7356 15.3643 15.3643L18 18H0V9H3V15H9L9.30859 14.9922C12.4789 14.8316 15 12.2102 15 9C15 5.68629 12.3137 3 9 3C7.34314 3 5.8436 3.67202 4.75781 4.75781L0 0H9Z" fill="white"/>
<path d="M24 14.8154V3H28.4829C29.4013 3 30.1718 3.15769 30.7945 3.47308C31.421 3.78846 31.8938 4.23077 32.2129 4.8C32.5359 5.36538 32.6974 6.025 32.6974 6.77885C32.6974 7.53654 32.5339 8.19423 32.2071 8.75192C31.8841 9.30577 31.4074 9.73462 30.777 10.0385C30.1465 10.3385 29.3721 10.4885 28.4538 10.4885H25.2608V8.71154H28.1619C28.6989 8.71154 29.1387 8.63846 29.4811 8.49231C29.8236 8.34231 30.0765 8.125 30.2399 7.84038C30.4073 7.55192 30.4909 7.19808 30.4909 6.77885C30.4909 6.35962 30.4073 6.00192 30.2399 5.70577C30.0726 5.40577 29.8177 5.17885 29.4753 5.025C29.1328 4.86731 28.6911 4.78846 28.1502 4.78846H26.1656V14.8154H24ZM30.1757 9.46154L33.1352 14.8154H30.7186L27.8117 9.46154H30.1757Z" fill="white"/>
<path d="M39.4901 11.0885V5.95385H41.6032V14.8154H39.5543V13.2404H39.4609C39.2586 13.7365 38.9258 14.1423 38.4628 14.4577C38.0036 14.7731 37.4374 14.9308 36.7641 14.9308C36.1765 14.9308 35.657 14.8019 35.2056 14.5442C34.7581 14.2827 34.4079 13.9038 34.1549 13.4077C33.902 12.9077 33.7755 12.3038 33.7755 11.5962V5.95385H35.8886V11.2731C35.8886 11.8346 36.0442 12.2808 36.3555 12.6115C36.6669 12.9423 37.0755 13.1077 37.5814 13.1077C37.8927 13.1077 38.1943 13.0327 38.4861 12.8827C38.778 12.7327 39.0173 12.5096 39.2041 12.2135C39.3948 11.9135 39.4901 11.5385 39.4901 11.0885Z" fill="white"/>
<path d="M45.0672 9.62308V14.8154H42.9542V5.95385H44.9738V7.45962H45.0789C45.2852 6.96346 45.614 6.56923 46.0654 6.27692C46.5207 5.98462 47.083 5.83846 47.7523 5.83846C48.3711 5.83846 48.91 5.96923 49.3692 6.23077C49.8323 6.49231 50.1903 6.87115 50.4433 7.36731C50.7001 7.86346 50.8266 8.46538 50.8227 9.17308V14.8154H48.7096V9.49615C48.7096 8.90385 48.554 8.44038 48.2427 8.10577C47.9352 7.77115 47.5091 7.60385 46.9643 7.60385C46.5946 7.60385 46.2658 7.68462 45.9778 7.84615C45.6938 8.00385 45.47 8.23269 45.3066 8.53269C45.147 8.83269 45.0672 9.19615 45.0672 9.62308Z" fill="white"/>
<path d="M56.0598 14.9885C55.1648 14.9885 54.3962 14.7942 53.7541 14.4058C53.1159 14.0173 52.6236 13.4808 52.2773 12.7962C51.9349 12.1077 51.7636 11.3154 51.7636 10.4192C51.7636 9.51923 51.9388 8.725 52.289 8.03654C52.6392 7.34423 53.1334 6.80577 53.7716 6.42115C54.4137 6.03269 55.1725 5.83846 56.0481 5.83846C56.7758 5.83846 57.4199 5.97115 57.9802 6.23654C58.5445 6.49808 58.994 6.86923 59.3286 7.35C59.6633 7.82692 59.854 8.38462 59.9007 9.02308H57.881C57.7993 8.59615 57.6047 8.24038 57.2973 7.95577C56.9937 7.66731 56.5871 7.52308 56.0773 7.52308C55.6454 7.52308 55.2659 7.63846 54.9391 7.86923C54.6122 8.09615 54.3573 8.42308 54.1744 8.85C53.9954 9.27692 53.9059 9.78846 53.9059 10.3846C53.9059 10.9885 53.9954 11.5077 54.1744 11.9423C54.3534 12.3731 54.6044 12.7058 54.9274 12.9404C55.2543 13.1712 55.6376 13.2865 56.0773 13.2865C56.3886 13.2865 56.6669 13.2288 56.912 13.1135C57.1611 12.9942 57.3693 12.8231 57.5366 12.6C57.7039 12.3769 57.8187 12.1058 57.881 11.7865H59.9007C59.8501 12.4135 59.6633 12.9692 59.3403 13.4538C59.0173 13.9346 58.5776 14.3115 58.0211 14.5846C57.4646 14.8538 56.8108 14.9885 56.0598 14.9885Z" fill="white"/>
<path d="M62.9269 9.62308V14.8154H60.8139V3H62.8802V7.45962H62.9853C63.1955 6.95961 63.5204 6.56538 63.9601 6.27692C64.4037 5.98462 64.968 5.83846 65.6529 5.83846C66.2755 5.83846 66.8184 5.96731 67.2815 6.225C67.7446 6.48269 68.1026 6.85962 68.3555 7.35577C68.6123 7.85192 68.7408 8.45769 68.7408 9.17308V14.8154H66.6277V9.49615C66.6277 8.9 66.4721 8.43654 66.1607 8.10577C65.8533 7.77115 65.4214 7.60385 64.8649 7.60385C64.4913 7.60385 64.1566 7.68462 63.8609 7.84615C63.569 8.00385 63.3394 8.23269 63.1721 8.53269C63.0087 8.83269 62.9269 9.19615 62.9269 9.62308Z" fill="white"/>
<path d="M72.6528 14.9942C72.0847 14.9942 71.573 14.8942 71.1177 14.6942C70.6663 14.4904 70.3082 14.1904 70.0436 13.7942C69.7829 13.3981 69.6525 12.9096 69.6525 12.3288C69.6525 11.8288 69.7459 11.4154 69.9327 11.0885C70.1195 10.7615 70.3744 10.5 70.6974 10.3038C71.0204 10.1077 71.3842 9.95962 71.7889 9.85962C72.1975 9.75577 72.6198 9.68077 73.0556 9.63462C73.5809 9.58077 74.0071 9.53269 74.3339 9.49038C74.6608 9.44423 74.8982 9.375 75.0461 9.28269C75.1978 9.18654 75.2737 9.03846 75.2737 8.83846V8.80385C75.2737 8.36923 75.1434 8.03269 74.8826 7.79423C74.6219 7.55577 74.2464 7.43654 73.7561 7.43654C73.2385 7.43654 72.828 7.54808 72.5244 7.77115C72.2248 7.99423 72.0224 8.25769 71.9174 8.56154L69.9444 8.28461C70.1 7.74615 70.3569 7.29615 70.7149 6.93462C71.0729 6.56923 71.5107 6.29615 72.0283 6.11538C72.5458 5.93077 73.1179 5.83846 73.7444 5.83846C74.1763 5.83846 74.6063 5.88846 75.0344 5.98846C75.4625 6.08846 75.8536 6.25385 76.2077 6.48462C76.5618 6.71154 76.8459 7.02115 77.0599 7.41346C77.2778 7.80577 77.3868 8.29615 77.3868 8.88462V14.8154H75.3554V13.5981H75.2854C75.157 13.8442 74.976 14.075 74.7425 14.2904C74.5129 14.5019 74.223 14.6731 73.8728 14.8038C73.5265 14.9308 73.1198 14.9942 72.6528 14.9942ZM73.2015 13.4596C73.6257 13.4596 73.9934 13.3769 74.3048 13.2115C74.6161 13.0423 74.8554 12.8192 75.0227 12.5423C75.194 12.2654 75.2796 11.9635 75.2796 11.6365V10.5923C75.2134 10.6462 75.1006 10.6962 74.941 10.7423C74.7854 10.7885 74.6102 10.8288 74.4157 10.8635C74.2211 10.8981 74.0285 10.9288 73.8378 10.9558C73.6471 10.9827 73.4817 11.0058 73.3416 11.025C73.0264 11.0673 72.7443 11.1365 72.4952 11.2327C72.2462 11.3288 72.0497 11.4635 71.9057 11.6365C71.7617 11.8058 71.6897 12.025 71.6897 12.2942C71.6897 12.6788 71.8317 12.9692 72.1158 13.1654C72.3999 13.3615 72.7618 13.4596 73.2015 13.4596Z" fill="white"/>
<path d="M83.1667 5.95385V7.56923H78.0125V5.95385H83.1667ZM79.285 3.83077H81.3981V12.15C81.3981 12.4308 81.4409 12.6462 81.5265 12.7962C81.616 12.9423 81.7328 13.0423 81.8767 13.0962C82.0207 13.15 82.1803 13.1769 82.3554 13.1769C82.4877 13.1769 82.6083 13.1673 82.7173 13.1481C82.8301 13.1288 82.9157 13.1115 82.9741 13.0962L83.3302 14.7288C83.2173 14.7673 83.0558 14.8096 82.8457 14.8558C82.6395 14.9019 82.3865 14.9288 82.0869 14.9365C81.5576 14.9519 81.0809 14.8731 80.6568 14.7C80.2326 14.5231 79.896 14.25 79.6469 13.8808C79.4018 13.5115 79.2811 13.05 79.285 12.4962V3.83077Z" fill="white"/>
<path d="M91.3718 14.8154H87.8695V3H91.5819C92.7221 3 93.6969 3.23462 94.5063 3.70385C95.3197 4.17308 95.9423 4.84615 96.3742 5.72308C96.8062 6.6 97.0222 7.65192 97.0222 8.87885C97.0222 10.1173 96.8003 11.1808 96.3567 12.0692C95.917 12.9538 95.2749 13.6327 94.4305 14.1058C93.5899 14.5788 92.5703 14.8154 91.3718 14.8154ZM88.961 13.8462H91.3076C92.3349 13.8462 93.1949 13.6462 93.8876 13.2462C94.5803 12.8462 95.0998 12.275 95.4461 11.5327C95.7925 10.7904 95.9656 9.90577 95.9656 8.87885C95.9617 7.85962 95.7905 6.98269 95.452 6.24808C95.1173 5.51346 94.6192 4.95 93.9576 4.55769C93.3 4.16538 92.4867 3.96923 91.5177 3.96923H88.961V13.8462Z" fill="white"/>
<path d="M102.115 15C101.34 15 100.656 14.8058 100.06 14.4173C99.4686 14.0288 99.0055 13.4923 98.6709 12.8077C98.3362 12.1192 98.1689 11.325 98.1689 10.425C98.1689 9.51731 98.3362 8.71923 98.6709 8.03077C99.0055 7.33846 99.4686 6.8 100.06 6.41538C100.656 6.02692 101.34 5.83269 102.115 5.83269C102.889 5.83269 103.572 6.02692 104.164 6.41538C104.755 6.80385 105.218 7.34231 105.553 8.03077C105.891 8.71923 106.061 9.51731 106.061 10.425C106.061 11.325 105.893 12.1192 105.559 12.8077C105.224 13.4923 104.759 14.0288 104.164 14.4173C103.572 14.8058 102.889 15 102.115 15ZM102.115 14.0596C102.737 14.0596 103.265 13.8942 103.697 13.5635C104.129 13.2327 104.456 12.7923 104.677 12.2423C104.903 11.6923 105.016 11.0865 105.016 10.425C105.016 9.76346 104.903 9.15577 104.677 8.60192C104.456 8.04808 104.129 7.60385 103.697 7.26923C103.265 6.93462 102.737 6.76731 102.115 6.76731C101.496 6.76731 100.969 6.93462 100.533 7.26923C100.101 7.60385 99.7721 8.04808 99.5464 8.60192C99.3246 9.15577 99.2137 9.76346 99.2137 10.425C99.2137 11.0865 99.3246 11.6923 99.5464 12.2423C99.7721 12.7923 100.101 13.2327 100.533 13.5635C100.965 13.8942 101.492 14.0596 102.115 14.0596Z" fill="white"/>
<path d="M111.022 15C110.22 15 109.522 14.8019 108.926 14.4058C108.335 14.0096 107.876 13.4673 107.549 12.7788C107.222 12.0904 107.059 11.3058 107.059 10.425C107.059 9.53654 107.224 8.74615 107.555 8.05385C107.889 7.36154 108.353 6.81923 108.944 6.42692C109.536 6.03077 110.222 5.83269 111.005 5.83269C111.604 5.83269 112.147 5.94808 112.633 6.17885C113.12 6.40577 113.52 6.72692 113.836 7.14231C114.155 7.55385 114.355 8.03462 114.437 8.58462H113.386C113.277 8.08462 113.014 7.65769 112.598 7.30385C112.186 6.94615 111.66 6.76731 111.022 6.76731C110.45 6.76731 109.944 6.92115 109.504 7.22885C109.065 7.53269 108.72 7.95769 108.471 8.50385C108.226 9.04615 108.103 9.675 108.103 10.3904C108.103 11.1096 108.224 11.7462 108.465 12.3C108.707 12.85 109.045 13.2808 109.481 13.5923C109.921 13.9038 110.434 14.0596 111.022 14.0596C111.419 14.0596 111.781 13.9865 112.108 13.8404C112.439 13.6904 112.715 13.4788 112.937 13.2058C113.162 12.9327 113.314 12.6077 113.392 12.2308H114.443C114.365 12.7654 114.172 13.2423 113.865 13.6615C113.561 14.0769 113.166 14.4038 112.68 14.6423C112.197 14.8808 111.645 15 111.022 15Z" fill="white"/>
<path d="M121.872 7.89808L120.92 8.16346C120.827 7.89808 120.694 7.65769 120.523 7.44231C120.352 7.22692 120.128 7.05577 119.852 6.92885C119.58 6.80192 119.241 6.73846 118.836 6.73846C118.229 6.73846 117.731 6.88077 117.342 7.16538C116.953 7.45 116.758 7.81731 116.758 8.26731C116.758 8.64808 116.891 8.95769 117.155 9.19615C117.424 9.43077 117.836 9.61731 118.393 9.75577L119.747 10.0846C120.498 10.2654 121.06 10.5519 121.434 10.9442C121.811 11.3365 122 11.8288 122 12.4212C122 12.9212 121.86 13.3654 121.58 13.7538C121.3 14.1423 120.908 14.4481 120.406 14.6712C119.908 14.8904 119.33 15 118.673 15C117.797 15 117.075 14.8058 116.507 14.4173C115.939 14.025 115.575 13.4596 115.416 12.7212L116.414 12.4788C116.542 13.0058 116.793 13.4038 117.167 13.6731C117.544 13.9423 118.04 14.0769 118.655 14.0769C119.344 14.0769 119.895 13.925 120.307 13.6212C120.72 13.3135 120.926 12.9288 120.926 12.4673C120.926 12.1096 120.805 11.8096 120.564 11.5673C120.323 11.3212 119.957 11.1404 119.467 11.025L118.002 10.6788C117.223 10.4942 116.647 10.2019 116.274 9.80192C115.9 9.40192 115.713 8.90577 115.713 8.31346C115.713 7.825 115.848 7.39615 116.116 7.02692C116.385 6.65385 116.754 6.36154 117.225 6.15C117.696 5.93846 118.233 5.83269 118.836 5.83269C119.657 5.83269 120.313 6.01731 120.803 6.38654C121.298 6.75192 121.654 7.25577 121.872 7.89808Z" fill="white"/>
</svg>
